<?xml version="1.0" encoding="utf-8"?>
<!-- Generator: Adobe Illustrator 25.4.1, SVG Export Plug-In . SVG Version: 6.00 Build 0)  -->
<svg version="1.1" id="Laag_1" xmlns="http://www.w3.org/2000/svg" xmlns:xlink="http://www.w3.org/1999/xlink" x="0px" y="0px"
	 viewBox="0 0 150 150" style="enable-background:new 0 0 150 150;" xml:space="preserve">
<style type="text/css">
	.st0{fill:none;stroke:#E20A0A;stroke-width:17;stroke-linecap:round;stroke-miterlimit:10;}
	.st1{fill:none;stroke:#E20A0A;stroke-width:16;stroke-linecap:round;stroke-miterlimit:10;}
	.st2{fill:#FFFFFF;}
</style>
<path class="st2" d="M86.31,75l36.53-36.53c3.12-3.12,3.12-8.19,0-11.31c-3.12-3.12-8.19-3.12-11.31,0L75,63.69L38.47,27.16
	c-3.12-3.12-8.19-3.12-11.31,0c-3.12,3.12-3.12,8.19,0,11.31L63.69,75l-36.53,36.53c-3.12,3.12-3.12,8.19,0,11.31
	c1.56,1.56,3.61,2.34,5.66,2.34s4.09-0.78,5.66-2.34L75,86.31l36.53,36.53c1.56,1.56,3.61,2.34,5.66,2.34
	c2.05,0,4.09-0.78,5.66-2.34c3.12-3.12,3.12-8.19,0-11.31L86.31,75z"/>
</svg>
