<?xml version="1.0" encoding="utf-8"?>
<!-- Generator: Adobe Illustrator 25.4.1, SVG Export Plug-In . SVG Version: 6.00 Build 0)  -->
<svg version="1.1" id="Laag_1" xmlns="http://www.w3.org/2000/svg" xmlns:xlink="http://www.w3.org/1999/xlink" x="0px" y="0px"
	 viewBox="0 0 150 150" style="enable-background:new 0 0 150 150;" xml:space="preserve">
<style type="text/css">
	.st0{fill:none;stroke:#E20A0A;stroke-width:17;stroke-linecap:round;stroke-miterlimit:10;}
	.st1{fill:none;stroke:#E20A0A;stroke-width:16;stroke-linecap:round;stroke-miterlimit:10;}
	.st2{fill:#FFFFFF;}
</style>
<g>
	<path class="st2" d="M136.45,83H11.73c-4.42,0-8-3.58-8-8s3.58-8,8-8h124.72c4.42,0,8,3.58,8,8S140.87,83,136.45,83z"/>
</g>
<g>
	<path class="st2" d="M138.27,40.81H31.35c-4.42,0-8-3.58-8-8s3.58-8,8-8h106.92c4.42,0,8,3.58,8,8S142.69,40.81,138.27,40.81z"/>
</g>
<g>
	<path class="st2" d="M138.27,125.19H80.38c-4.42,0-8-3.58-8-8s3.58-8,8-8h57.88c4.42,0,8,3.58,8,8S142.69,125.19,138.27,125.19z"/>
</g>
</svg>
