<?xml version="1.0" encoding="utf-8"?>
<!-- Generator: Adobe Illustrator 25.4.1, SVG Export Plug-In . SVG Version: 6.00 Build 0)  -->
<svg version="1.1" id="Laag_1" xmlns="http://www.w3.org/2000/svg" xmlns:xlink="http://www.w3.org/1999/xlink" x="0px" y="0px"
	 viewBox="0 0 595.3 841.9" style="enable-background:new 0 0 595.3 841.9;" xml:space="preserve">
<style type="text/css">
	.st0{fill:#FFFFFF;}
</style>
<path class="st0" d="M35,10c-2.2,0-4.3-0.7-6.1-2c-2.5-1.9-4-4.8-4-8h-6.5v17.8l0,9.8c0,3.3-2.6,5.9-5.9,5.9c-0.1,0-0.2,0-0.3,0
	c-3.1-0.2-5.5-2.7-5.6-5.8c-0.1-3.3,2.6-5.9,5.8-6c0.7,0,1.3,0.1,1.9,0.3v-6.6c-0.6-0.1-1.2-0.1-1.9-0.1c-3.6,0-7,1.5-9.4,4.2
	c-1.8,2.1-2.9,4.7-3.1,7.4c-0.2,3.6,1.1,7,3.6,9.5C6,38.7,9.2,40,12.5,40c0.6,0,1.3,0,1.9-0.1c2.6-0.4,5.1-1.6,6.9-3.5
	c2.3-2.3,3.6-5.4,3.7-8.7l0-14.6c1.1,0.9,2.3,1.6,3.7,2.1c2,0.9,4.2,1.3,6.4,1.3L35,10C35,10,35,10,35,10L35,10z"/>
</svg>
