<?xml version="1.0" encoding="utf-8"?>
<!-- Generator: Adobe Illustrator 25.4.1, SVG Export Plug-In . SVG Version: 6.00 Build 0)  -->
<svg version="1.1" id="Laag_1" xmlns="http://www.w3.org/2000/svg" xmlns:xlink="http://www.w3.org/1999/xlink" x="0px" y="0px"
	 viewBox="0 0 595.3 841.9" style="enable-background:new 0 0 595.3 841.9;" xml:space="preserve">
<style type="text/css">
	.st0{fill:#FFFFFF;}
</style>
<path class="st0" d="M17.2,1.9c0.1,0.6,0.2,1.4,0.3,2.6l0,1.6l0,1.6c-0.1,1.2-0.2,2-0.3,2.6c-0.1,0.4-0.3,0.7-0.6,0.9
	c-0.3,0.3-0.6,0.5-1,0.6c-0.5,0.1-1.8,0.2-3.8,0.3L9,12l-2.8,0c-2-0.1-3.3-0.2-3.8-0.3c-0.4-0.1-0.7-0.3-1-0.6
	c-0.3-0.3-0.5-0.6-0.6-0.9C0.7,9.6,0.6,8.7,0.5,7.6l0-1.6c0-0.5,0-1,0-1.6c0.1-1.1,0.2-2,0.3-2.6C1,1.1,1.6,0.5,2.3,0.3
	C2.9,0.2,4.2,0.1,6.2,0L9,0l2.8,0c2,0.1,3.3,0.2,3.8,0.3C16.4,0.5,17,1.1,17.2,1.9z M7.2,8.6L11.7,6L7.2,3.5V8.6z"/>
</svg>
