<?xml version="1.0" encoding="utf-8"?>
<!-- Generator: Adobe Illustrator 25.4.1, SVG Export Plug-In . SVG Version: 6.00 Build 0)  -->
<svg version="1.1" id="Laag_1" xmlns="http://www.w3.org/2000/svg" xmlns:xlink="http://www.w3.org/1999/xlink" x="0px" y="0px"
	 viewBox="0 0 595.3 841.9" style="enable-background:new 0 0 595.3 841.9;" xml:space="preserve">
<style type="text/css">
	.st0{fill:#FFFFFF;}
</style>
<path class="st0" d="M14.3,3.8c0,0.1,0,0.2,0,0.4c0,1.5-0.4,2.9-1.1,4.3c-0.8,1.5-1.8,2.7-3.2,3.5c-1.5,1-3.2,1.5-5.1,1.5
	c-1.8,0-3.5-0.5-5-1.5c0.2,0,0.5,0,0.8,0c1.5,0,2.9-0.5,4.1-1.4c-0.7,0-1.4-0.2-1.9-0.6C2.4,9.6,2,9,1.8,8.4c0.2,0,0.4,0,0.6,0
	c0.3,0,0.6,0,0.9-0.1C2.5,8.2,1.9,7.8,1.4,7.2C0.9,6.6,0.7,5.9,0.7,5.1V5.1c0.5,0.3,0.9,0.4,1.5,0.4C1.7,5.2,1.3,4.8,1.1,4.3
	c-0.3-0.5-0.4-1-0.4-1.6c0-0.6,0.2-1.1,0.5-1.6c0.8,1,1.8,1.8,3,2.4c1.2,0.6,2.5,0.9,3.8,1c0-0.2-0.1-0.5-0.1-0.8
	c0-0.6,0.1-1.1,0.4-1.6c0.3-0.5,0.7-0.9,1.2-1.2c0.5-0.3,1.1-0.4,1.6-0.4c0.5,0,0.9,0.1,1.3,0.3c0.4,0.2,0.8,0.4,1.1,0.8
	c0.7-0.1,1.4-0.4,2.1-0.8c-0.2,0.8-0.8,1.4-1.4,1.8C14.8,2.5,15.4,2.3,16,2C15.5,2.7,15,3.3,14.3,3.8L14.3,3.8z"/>
</svg>
