<svg xmlns="http://www.w3.org/2000/svg"><path d="M34.981 10.015a10.01 10.01 0 0 1-6.065-2.035A10.107 10.107 0 0 1 24.906 0h-6.504v17.846l-.008 9.776a5.909 5.909 0 0 1-6.229 5.9 5.915 5.915 0 0 1-5.571-5.81 5.905 5.905 0 0 1 7.756-5.7v-6.631a12.748 12.748 0 0 0-1.876-.14 12.45 12.45 0 0 0-9.372 4.21 12.278 12.278 0 0 0-3.078 7.39 12.264 12.264 0 0 0 3.63 9.533A12.441 12.441 0 0 0 12.474 40c.634 0 1.26-.047 1.876-.138a12.413 12.413 0 0 0 6.945-3.488 12.252 12.252 0 0 0 3.653-8.702l-.033-14.597a16.416 16.416 0 0 0 3.653 2.14 16.384 16.384 0 0 0 6.432 1.3v-6.502c.001.001-.017.001-.019.001z" fill="currentColor"/></svg>