<svg xmlns="http://www.w3.org/2000/svg"><path d="M14.344 3.75c.02.083.031.219.031.406 0 1.5-.365 2.948-1.094 4.344-.75 1.48-1.802 2.656-3.156 3.531-1.48.98-3.177 1.469-5.094 1.469-1.833 0-3.51-.49-5.031-1.469.23.021.49.032.781.032 1.521 0 2.886-.47 4.094-1.407-.73 0-1.37-.213-1.922-.64a3.263 3.263 0 0 1-1.14-1.61c.208.021.406.032.593.032.292 0 .584-.032.875-.094a3.306 3.306 0 0 1-1.875-1.156 3.146 3.146 0 0 1-.75-2.063v-.062c.459.27.948.416 1.469.437a3.64 3.64 0 0 1-1.063-1.187 3.152 3.152 0 0 1-.406-1.579c0-.573.156-1.12.469-1.64A9.048 9.048 0 0 0 4.109 3.53a9.083 9.083 0 0 0 3.766 1 4.52 4.52 0 0 1-.063-.75c0-.583.146-1.13.438-1.64A3.21 3.21 0 0 1 9.437.937 3.17 3.17 0 0 1 11.062.5c.48 0 .922.094 1.329.281a3.74 3.74 0 0 1 1.078.75A6.676 6.676 0 0 0 15.562.75a3.262 3.262 0 0 1-1.437 1.813A7.049 7.049 0 0 0 16 2.03a7.213 7.213 0 0 1-1.656 1.719z" fill="currentColor"/></svg>