<svg xmlns="http://www.w3.org/2000/svg"><path d="M17.187 1.875c.146.563.25 1.417.313 2.563L17.531 6 17.5 7.563c-.063 1.166-.167 2.03-.313 2.593a2.18 2.18 0 0 1-.562.938c-.27.27-.594.458-.969.562-.541.146-1.812.25-3.812.313L9 12l-2.844-.031c-2-.063-3.27-.167-3.812-.313a2.166 2.166 0 0 1-.969-.562 2.18 2.18 0 0 1-.563-.938C.667 9.594.562 8.73.5 7.563L.469 6c0-.458.01-.98.031-1.562.062-1.146.167-2 .312-2.563A2.175 2.175 0 0 1 2.344.344C2.885.198 4.156.094 6.156.03L9 0l2.844.031c2 .063 3.27.167 3.812.313a2.173 2.173 0 0 1 1.531 1.531zM7.25 8.563L11.719 6 7.25 3.469v5.094z" fill="currentColor"/></svg>